<svg width="40" height="40" viewBox="0 0 40 40" fill="none" xmlns="http://www.w3.org/2000/svg">
<path fill-rule="evenodd" clip-rule="evenodd" d="M2.89944 2.84086L15.2088 2.83838L25.1187 26.8957L27.1096 26.8763C27.6532 26.1815 29.4818 21.3524 29.9829 20.1338L32.7205 13.3426L30.2175 13.3454L26.2055 23.4677C25.5758 22.6457 17.891 2.8652 17.1749 1.16163L1.16498 1.16113L1.1615 38.8381L22.0466 38.8157L21.3543 37.1715L2.83711 37.1663L2.89969 2.84086H2.89944Z" fill="black" fill-opacity="0.87"/>
<path fill-rule="evenodd" clip-rule="evenodd" d="M12.5007 21.4453C12.5884 20.8324 13.7493 18.28 14.1339 17.3924L14.5617 16.453C14.6834 16.2536 14.6715 16.2799 14.7874 16.1575C15.3044 17.8017 16.5711 19.8179 16.9795 21.4236L12.5005 21.4453H12.5007ZM20.4266 2.78124L37.1445 2.84457C37.4 4.20693 37.1917 28.9208 37.2048 33.0861C37.2071 33.7897 37.2108 34.4924 37.2108 35.1962C37.2108 35.6735 37.4144 36.8953 37.0191 37.168L26.3538 37.162L15.8182 13.2157L13.6524 13.2329L7.79919 26.7581L10.1934 26.7263L11.4871 23.5275L17.9038 23.5539L24.531 38.838L38.8345 38.8174L38.839 1.16211L19.7835 1.16981L20.4269 2.781L20.4266 2.78124Z" fill="black" fill-opacity="0.6"/>
</svg>
