<svg width="48" height="40" viewBox="0 0 48 40" fill="none" xmlns="http://www.w3.org/2000/svg">
<path d="M23.8634 39.5L23.8764 0.5L15.5508 4.61989V7.67565C15.1702 7.58271 13.9608 7.0316 13.352 6.75186C13.0332 6.60199 12.6827 6.53274 12.331 6.55019H12.2985C11.976 6.57323 11.6609 6.65811 11.3703 6.80019L0.25 12.1822V33.7314L9.93538 36.0669C10.2601 36.1461 10.5957 36.1709 10.9285 36.1403C11.1018 36.1236 11.2791 36.1041 11.4604 36.0818C12.0627 36.0074 12.6261 35.9099 13.1478 35.7983L15.5359 35.3978L15.5424 37.5L23.8634 39.5Z" fill="#EBEBEB"/>
<path d="M10.4681 19.4814L11.9922 18.4266C12.4813 18.0548 13.1505 17.3262 13.4605 16.7965L13.8374 16.1087C14.1065 15.198 13.9181 9.15335 13.9404 8.14591L13.8476 7.63755C13.7641 7.18216 13.2341 6.87639 12.9055 6.60037L13.4392 6.79368L15.5508 7.67565L15.5406 35.4015L11.465 36.0855L12.4563 35.6812C12.9918 35.3522 13.4884 34.7277 13.7195 34.1422C14.2987 32.7704 13.9803 22.4322 13.9655 20.8652L13.8959 20.6032C13.6536 20.0911 13.1877 19.6561 12.6298 19.5595L10.4681 19.4814Z" fill="#9C9C9C"/>
<path d="M16.2079 13.6822L18.3947 12.9582V16.8634L20.4589 12.421L23.1413 11.6357L20.1489 18.6617L23.3891 26.5753H20.7271L18.416 20.9758L18.3538 26.5753H16.2079V13.6822Z" fill="#9C9C9C"/>
<path d="M23.8885 39.5L23.8764 0.5L32.2057 4.61989V5.94796L33.6564 5.37546L39.9615 8.48327L40.9351 10.8067L43.6945 10.3216C43.6945 10.3216 46.6192 11.7537 47.5 12.1803V33.7314L43.7465 34.6376L39.9791 34.3876V35.5474L37.8174 36.0669C37.4925 36.145 33.6982 37.1013 33.6982 37.1013L32.2132 36.7528V37.4963L23.8885 39.5Z" fill="black" fill-opacity="0.87"/>
<path d="M29.3878 19.3532L31.4734 19.6757V25.3355C31.4731 25.4 31.4672 25.4644 31.4558 25.5279L31.4307 25.6645C31.4009 25.8288 31.3333 25.9838 31.2332 26.1174C31.1332 26.251 31.0035 26.3594 30.8543 26.434C30.7007 26.5113 30.5306 26.5502 30.3587 26.5474L26.3899 26.4879C26.1358 26.4842 25.8883 26.4071 25.677 26.2658C25.4384 26.1066 25.2579 25.874 25.1628 25.6032L25.0858 25.382C25.0359 25.2395 25.0104 25.0896 25.0106 24.9387L25.0552 12.9916C25.0558 12.8589 25.0906 12.7286 25.1563 12.6134L25.2213 12.4991C25.2941 12.3721 25.4017 12.2685 25.5313 12.2007C25.7001 12.1116 25.8962 12.0891 26.0808 12.1375L30.8729 13.3838C31.0013 13.4175 31.1173 13.4875 31.207 13.5855C31.2758 13.6613 31.3268 13.7515 31.3565 13.8494L31.4437 14.1329C31.4633 14.198 31.4733 14.2656 31.4734 14.3336V17.3569L29.9132 17.0781L29.9605 15.461C29.9622 15.4018 29.9514 15.3429 29.9289 15.2881C29.9055 15.2303 29.8695 15.1784 29.8236 15.1361C29.7777 15.0938 29.723 15.0623 29.6635 15.0437L28.4569 14.6645C28.3991 14.6457 28.3383 14.6384 28.2777 14.6431L28.0076 14.6608C27.9322 14.6657 27.8588 14.688 27.7933 14.7259C27.7278 14.7637 27.6719 14.8162 27.6299 14.8792C27.5746 14.9615 27.5454 15.0587 27.5463 15.158L27.5566 23.4628C27.5566 23.5806 27.5833 23.6969 27.6345 23.803C27.7061 23.9499 27.822 24.0706 27.9659 24.1478L27.977 24.1533C28.0911 24.2149 28.2187 24.2468 28.3483 24.2463L29.5029 24.2388C29.5605 24.2388 29.6175 24.2263 29.6699 24.2023C29.7222 24.1782 29.7688 24.1432 29.8064 24.0994C29.8528 24.0465 29.8847 23.9825 29.8992 23.9136L29.9289 23.7695C29.9345 23.742 29.9373 23.714 29.9373 23.6859L29.9234 21.29L29.3665 21.2398L29.3878 19.3532Z" fill="#C0C0C0"/>
<path d="M32.2057 5.94796L33.6564 5.37546L33.6982 37.105L32.2122 36.7556L32.2057 5.94796Z" fill="#9C9C9C"/>
<path d="M40.936 10.802L43.6955 10.3178L41.9756 13.1171L40.936 10.802Z" fill="#9C9C9C"/>
<path d="M39.9819 34.3876L43.676 34.6329V29.8234L41.9496 32.5381L39.9819 29.013V34.3876Z" fill="#9C9C9C"/>
</svg>
