<svg width="38" height="38" viewBox="0 0 38 38" fill="none" xmlns="http://www.w3.org/2000/svg">
<path d="M17.5946 0.427582C14.0111 0.746735 10.6599 2.02335 7.87676 4.13387C3.61167 7.36143 0.983414 12.1281 0.518694 17.4662C0.286334 20.143 0.740727 23.2264 1.73213 25.7024C2.91458 28.6623 4.64954 31.0919 7.04027 33.1356C9.94735 35.6219 13.7219 37.1816 17.5843 37.4956C18.7719 37.5882 20.7237 37.5316 21.7926 37.3669C23.8683 37.0529 25.531 36.533 27.3589 35.6373C32.7135 33.0172 36.488 27.9776 37.5104 22.0991C37.8615 20.0915 37.8512 17.7854 37.4846 15.716C37.0096 13.0135 35.8684 10.3265 34.2522 8.10783C33.5551 7.15552 32.9717 6.48633 32.0629 5.60609C29.0835 2.72342 25.3967 0.988674 21.1471 0.479057C20.5326 0.401844 18.2349 0.37096 17.5946 0.427582ZM21.6531 4.00003C21.7461 4.03606 21.8907 4.14417 21.9681 4.24197C22.1024 4.3964 22.1127 4.44273 22.092 4.73614C22.0662 5.1531 21.9216 5.31267 21.4105 5.49284C20.9406 5.65756 14.0266 7.78868 12.4723 8.24682C11.5067 8.53508 10.7425 8.83364 10.7425 8.92115C10.7425 8.98293 10.8406 9.0447 11.6203 9.46165C12.0334 9.683 12.4878 9.92494 12.6272 10.0022C12.7718 10.0794 13.2469 10.3316 13.6858 10.5684C14.1247 10.8 14.9044 11.217 15.4156 11.495C17.4758 12.6068 17.5997 12.6532 18.5653 12.648C19.5464 12.6429 20.2641 12.4936 22.3605 11.8553C23.0834 11.6339 24.3382 11.253 25.1489 11.0059C27.5912 10.2595 29.1455 9.81169 29.5999 9.71389C30.2246 9.58005 31.1799 9.59035 31.8047 9.73448C32.7341 9.95068 33.519 10.4448 33.7927 10.9905C33.9579 11.3199 33.9734 11.7729 33.8288 12.0921C33.6171 12.5502 32.9562 12.9363 31.7582 13.2863C31.3761 13.3996 29.9458 13.832 28.5826 14.2489C27.2195 14.6659 25.4638 15.2013 24.6841 15.4329C22.1643 16.1947 21.617 16.4264 21.0645 16.9617C20.7082 17.2963 20.5223 17.6618 20.45 18.1766C20.419 18.3825 20.3984 21.1982 20.3984 25.2648C20.3984 29.5888 20.3777 32.1266 20.3468 32.3428C20.2383 33.0223 19.8511 33.5782 19.3192 33.8305C19.0765 33.9437 18.9578 33.9643 18.5653 33.9643C18.1471 33.9643 18.0645 33.9489 17.765 33.7996C17.2951 33.568 16.7891 33.0583 16.5515 32.5848C16.2262 31.9207 16.2159 31.8178 16.2107 27.7975C16.2004 21.7078 16.1385 17.7905 16.0507 17.4919C15.8751 16.9154 15.4724 16.3389 15.0025 15.9991C14.8424 15.8859 14.4293 15.6439 14.0834 15.4586C13.7374 15.2733 13.0455 14.8975 12.5498 14.6299C12.0541 14.357 10.9491 13.7599 10.0971 13.2966C9.24511 12.8385 8.20207 12.2671 7.77349 12.0355C6.89569 11.5464 6.39999 11.3148 6.16246 11.2685C5.85265 11.217 5.86814 10.8515 5.83716 18.8664C5.81134 26.1296 5.81134 26.1605 5.70291 26.2995C5.51702 26.5517 5.34146 26.6496 5.07295 26.6496C4.75281 26.6496 4.52045 26.5106 4.39136 26.2377C4.28809 26.0267 4.28809 25.934 4.30358 18.6965C4.31391 12.0561 4.32424 11.3457 4.40169 11.1295C4.72183 10.2235 5.2227 9.7911 5.99207 9.75507C6.72013 9.71903 7.01961 9.84258 9.78728 11.3611C10.4999 11.7523 11.5067 12.3031 12.0334 12.5914C14.0007 13.657 15.4259 14.4497 15.7718 14.671C16.66 15.2424 17.197 15.994 17.5481 17.1573L17.6824 17.5949L17.7185 24.4412C17.734 28.2041 17.7701 31.3442 17.7908 31.4162C17.8115 31.4883 17.8476 31.6324 17.8734 31.7406C17.956 32.0546 18.364 32.4458 18.6118 32.4458C18.8235 32.4458 18.8235 32.5281 18.8493 25.0332L18.8751 17.8523L18.9939 17.4919C19.4018 16.2925 20.1247 15.5153 21.4053 14.913C21.9165 14.671 22.1127 14.6041 24.7358 13.8114C25.6859 13.5231 26.9406 13.1422 27.5241 12.962C28.1076 12.7819 29.2126 12.4421 29.9768 12.2156C31.5207 11.7523 32.1197 11.5516 32.1197 11.495C32.1197 11.428 31.6808 11.2839 31.216 11.2067C30.8288 11.1398 30.6739 11.1346 30.2866 11.1861C29.5534 11.2788 29.4295 11.3096 24.9423 12.6892C22.1901 13.5334 21.9578 13.6003 21.0438 13.8371C18.8338 14.4034 17.5843 14.3467 16.1178 13.6106C15.6634 13.379 14.2589 12.6326 12.7563 11.8193C12.2606 11.5464 11.5532 11.1655 11.1814 10.9648C10.8148 10.7691 10.3708 10.5272 10.1952 10.4346C9.4723 10.0433 9.0902 9.51828 9.0902 8.9263C9.0902 8.0615 9.88023 7.40261 11.4654 6.93932C12.5549 6.62017 18.9216 4.65892 19.8562 4.35522C20.6308 4.10298 21.2194 3.94341 21.4208 3.93311C21.4569 3.92796 21.5602 3.95885 21.6531 4.00003Z" fill="black" fill-opacity="0.87"/>
</svg>
