<svg width="187" height="185" viewBox="0 0 187 185" fill="none" xmlns="http://www.w3.org/2000/svg">
<path d="M85.8244 0.981064C68.0034 2.56345 51.338 8.89299 37.4973 19.3571C16.2868 35.3597 3.21641 58.9934 0.905336 85.46C-0.2502 98.7317 2.00951 114.02 6.9398 126.296C12.8202 140.971 21.4482 153.018 33.3374 163.15C47.7944 175.477 66.5654 183.211 85.773 184.768C91.6791 185.227 101.386 184.946 106.701 184.129C117.024 182.573 125.292 179.995 134.383 175.554C161.011 162.563 179.782 137.577 184.867 108.43C186.613 98.4764 186.561 87.0424 184.738 76.7824C182.376 63.3832 176.701 50.0605 168.663 39.0604C165.197 34.3388 162.295 31.0209 157.776 26.6565C142.959 12.364 124.625 3.763 103.491 1.23628C100.435 0.853439 89.0085 0.700317 85.8244 0.981064ZM106.008 18.6936C106.47 18.8722 107.189 19.4082 107.574 19.8931C108.242 20.6588 108.293 20.8885 108.19 22.3433C108.062 24.4106 107.343 25.2018 104.801 26.095C102.464 26.9118 68.0805 37.478 60.3512 39.7495C55.5493 41.1788 51.7489 42.6591 51.7489 43.0929C51.7489 43.3992 52.2368 43.7055 56.1143 45.7728C58.1685 46.8703 60.4283 48.0698 61.1216 48.4526C61.8406 48.8355 64.203 50.0861 66.3857 51.2601C68.5684 52.4086 72.4458 54.4759 74.988 55.8541C85.2338 61.3669 85.85 61.5966 90.6519 61.5711C95.5309 61.5456 99.1002 60.8055 109.526 57.6407C113.121 56.5432 119.361 54.6546 123.392 53.4295C135.538 49.7288 143.267 47.5083 145.527 47.0234C148.634 46.3598 153.385 46.4108 156.492 47.1255C161.114 48.1974 165.017 50.6476 166.378 53.3529C167.2 54.9864 167.277 57.2323 166.558 58.8147C165.505 61.0862 162.218 63.0004 156.261 64.7359C154.36 65.2974 147.247 67.4413 140.468 69.5086C133.689 71.5759 124.958 74.2302 121.081 75.3787C108.55 79.156 105.828 80.3045 103.08 82.9589C101.309 84.6178 100.384 86.4299 100.025 88.9821C99.8705 90.003 99.7678 103.964 99.7678 124.126C99.7678 145.565 99.6651 158.148 99.511 159.22C98.9718 162.589 97.0459 165.345 94.401 166.596C93.1941 167.157 92.6035 167.259 90.6519 167.259C88.572 167.259 88.1611 167.183 86.6718 166.442C84.335 165.294 81.8185 162.767 80.6373 160.419C79.0195 157.127 78.9682 156.616 78.9425 136.683C78.8912 106.49 78.583 87.068 78.1465 85.5877C77.2734 82.7292 75.2705 79.8707 72.9337 78.1862C72.1377 77.6247 70.0834 76.4251 68.3629 75.5063C66.6425 74.5875 63.2015 72.7244 60.7364 71.3972C58.2713 70.0445 52.776 67.084 48.5391 64.7869C44.3021 62.5154 39.115 59.6825 36.9837 58.534C32.6184 56.1093 30.1532 54.9608 28.972 54.7311C27.4313 54.4759 27.5083 52.6638 27.3543 92.4021C27.2259 128.414 27.2259 128.567 26.6866 129.256C25.7622 130.507 24.8891 130.992 23.5538 130.992C21.9618 130.992 20.8062 130.303 20.1643 128.95C19.6507 127.904 19.6507 127.444 19.7277 91.5599C19.7791 58.6361 19.8304 55.114 20.2156 54.042C21.8077 49.5501 24.2985 47.4062 28.1246 47.2276C31.7453 47.0489 33.2347 47.6614 46.9984 55.1905C50.542 57.1302 55.5493 59.8611 58.1685 61.2904C67.9521 66.5735 75.0394 70.5039 76.7598 71.6014C81.1765 74.4344 83.8471 78.1607 85.5933 83.9287L86.2609 86.0981L86.4406 120.043C86.5177 138.7 86.6974 154.268 86.8001 154.626C86.9029 154.983 87.0826 155.698 87.211 156.234C87.6219 157.79 89.6505 159.73 90.883 159.73C91.9359 159.73 91.9359 160.138 92.0643 122.978L92.1926 87.3742L92.7833 85.5877C94.8119 79.641 98.4069 75.7871 104.775 72.801C107.317 71.6014 108.293 71.2696 121.338 67.3392C126.063 65.9099 132.303 64.0213 135.204 63.128C138.106 62.2347 143.601 60.5502 147.402 59.4272C155.079 57.1302 158.058 56.1349 158.058 55.8541C158.058 55.5223 155.875 54.8077 153.564 54.4249C151.639 54.0931 150.868 54.0676 148.942 54.3228C145.296 54.7822 144.68 54.9353 122.365 61.7753C108.678 65.961 107.523 66.2928 102.978 67.4668C91.9872 70.2742 85.773 69.9935 78.4803 66.3438C76.2206 65.1953 69.236 61.4946 61.7635 57.462C59.2984 56.1093 55.7804 54.2207 53.9316 53.2253C52.1084 52.2555 49.9 51.0559 49.027 50.5965C45.432 48.6568 43.5318 46.0535 43.5318 43.1185C43.5318 38.8307 47.4606 35.5638 55.3439 33.2668C60.7621 31.6844 92.4238 21.9604 97.0716 20.4546C100.923 19.204 103.851 18.4128 104.852 18.3618C105.032 18.3363 105.545 18.4894 106.008 18.6936Z" fill="#2A4588"/>
</svg>
