<svg width="176" height="176" viewBox="0 0 176 176" fill="none" xmlns="http://www.w3.org/2000/svg">
<path fill-rule="evenodd" clip-rule="evenodd" d="M8.54014 7.84651L65.4863 7.83491L111.332 120.214L120.543 120.123C123.057 116.877 131.517 94.3193 133.835 88.627L146.5 56.9034L134.921 56.9162L116.36 104.201C113.447 100.361 77.8951 7.96019 74.5821 0.00232008L0.516083 0L0.5 176L97.1196 175.896L93.9168 168.215L8.25181 168.191L8.54129 7.84651H8.54014Z" fill="#2A4588"/>
<path fill-rule="evenodd" clip-rule="evenodd" d="M53.3114 94.751C53.7181 91.888 59.1036 79.9648 60.888 75.8187L62.8728 71.4302C63.4373 70.4986 63.382 70.6216 63.92 70.0497C66.3184 77.7305 72.1946 87.1491 74.0896 94.6501L53.3103 94.751H53.3114ZM90.0812 7.56366L167.639 7.85947C168.824 14.2236 167.858 129.673 167.919 149.13C167.929 152.417 167.947 155.7 167.947 158.988C167.947 161.217 168.891 166.925 167.057 168.199L117.579 168.171L68.7018 56.3075L58.6543 56.3875L31.5 119.57L42.6073 119.421L48.6091 104.478L78.3772 104.601L109.122 176L175.479 175.904L175.5 0L87.0976 0.0359622L90.0824 7.5625L90.0812 7.56366Z" fill="#3A6EA5"/>
</svg>
