<svg width="176" height="176" viewBox="0 0 213 178" fill="none" xmlns="http://www.w3.org/2000/svg">
<path d="M106.448 178L106.506 0L69.1511 18.8036V32.7504C67.4436 32.3262 62.0174 29.8109 59.2855 28.5341C57.8555 27.8501 56.2825 27.534 54.7046 27.6137H54.5588C53.1117 27.7189 51.698 28.1062 50.3944 28.7547L0.5 53.3186V151.672L43.9561 162.331C45.4131 162.692 46.9188 162.805 48.4121 162.666C49.1894 162.59 49.9849 162.501 50.7983 162.399C53.501 162.06 56.0289 161.614 58.3693 161.105L69.0844 159.277L69.1136 168.872L106.448 178Z" fill="#DADADA"/>
<path d="M46.3465 86.6331L53.1845 81.8187C55.3792 80.122 58.3818 76.7965 59.7727 74.3787L61.4635 71.2399C62.6712 67.083 61.8258 39.4948 61.9257 34.8967L61.5093 32.5765C61.1345 30.498 58.7566 29.1025 57.2824 27.8427L59.6769 28.725L69.1511 32.7504L69.1053 159.294L50.8191 162.416L55.2668 160.571C57.6697 159.069 59.8976 156.219 60.9346 153.546C63.5332 147.286 62.1048 100.101 62.0382 92.949L61.7258 91.7529C60.6389 89.4157 58.5484 87.4306 56.0455 86.9894L46.3465 86.6331Z" fill="#3A6EA5"/>
<path d="M72.0995 60.1647L81.911 56.8604V74.6842L91.1727 54.4087L103.208 50.8244L89.7818 82.8919L104.32 119.01H92.3762L82.0067 93.4538L81.7277 119.01H72.0995V60.1647Z" fill="#3A6EA5"/>
<path d="M106.56 178L106.506 0L143.878 18.8036V24.865L150.387 22.2521L178.676 36.4365L183.045 47.0408L195.426 44.8266C195.426 44.8266 208.548 51.3631 212.5 53.3101V151.672L195.659 155.807L178.755 154.666V159.96L169.056 162.331C167.599 162.687 150.575 167.052 150.575 167.052L143.911 165.461V168.855L106.56 178Z" fill="#2A4588"/>
<path d="M131.235 86.0478L140.592 87.5196V113.352C140.591 113.646 140.564 113.94 140.513 114.23L140.401 114.853C140.267 115.603 139.964 116.311 139.515 116.92C139.066 117.53 138.484 118.025 137.815 118.366C137.125 118.718 136.362 118.896 135.591 118.883L117.784 118.612C116.644 118.595 115.533 118.243 114.585 117.598C113.515 116.871 112.705 115.81 112.278 114.573L111.933 113.564C111.709 112.914 111.594 112.23 111.595 111.541L111.795 57.0131C111.798 56.4074 111.954 55.8128 112.249 55.2867L112.541 54.765C112.867 54.1853 113.35 53.7128 113.931 53.4034C114.689 52.9965 115.569 52.8936 116.397 53.115L137.898 58.8031C138.474 58.9568 138.995 59.2764 139.397 59.7236C139.706 60.0695 139.935 60.481 140.068 60.9282L140.459 62.222C140.547 62.5191 140.592 62.8278 140.592 63.1382V76.9365L133.592 75.664L133.804 68.2834C133.812 68.0132 133.764 67.7444 133.663 67.4944C133.557 67.2304 133.396 66.9935 133.19 66.8006C132.984 66.6077 132.739 66.4637 132.472 66.3788L127.058 64.6482C126.799 64.5625 126.526 64.5293 126.254 64.5507L125.042 64.6313C124.704 64.6538 124.375 64.7554 124.081 64.9283C123.787 65.1011 123.536 65.3406 123.347 65.6281C123.099 66.004 122.968 66.4476 122.973 66.9006L123.018 104.805C123.019 105.342 123.138 105.873 123.368 106.357C123.689 107.028 124.209 107.578 124.855 107.931L124.905 107.956C125.417 108.237 125.989 108.383 126.571 108.38L131.751 108.347C132.01 108.346 132.265 108.289 132.5 108.18C132.735 108.07 132.944 107.91 133.113 107.71C133.321 107.469 133.464 107.176 133.529 106.862L133.663 106.204C133.688 106.079 133.7 105.951 133.7 105.823L133.638 94.8875L131.139 94.6585L131.235 86.0478Z" fill="#3A6EA5"/>
<path d="M143.878 24.865L150.387 22.2521L150.575 167.069L143.907 165.474L143.878 24.865Z" fill="#3A6EA5"/>
<path d="M183.049 47.0196L195.43 44.8096L187.713 57.5857L183.049 47.0196Z" fill="#3A6EA5"/>
<path d="M178.768 154.666L195.342 155.786V133.835L187.597 146.225L178.768 130.136V154.666Z" fill="#3A6EA5"/>
</svg>