<svg width="187" height="185" viewBox="0 0 187 185" fill="none" xmlns="http://www.w3.org/2000/svg">
<path d="M85.7431 0.231064C67.9221 1.81345 51.2567 8.14299 37.416 18.6071C16.2055 34.6097 3.13511 58.2434 0.824037 84.71C-0.331499 97.9817 1.92822 113.27 6.8585 125.546C12.7389 140.221 21.3669 152.268 33.2561 162.4C47.7131 174.727 66.4841 182.461 85.6917 184.018C91.5978 184.477 101.304 184.196 106.62 183.379C116.943 181.823 125.211 179.245 134.301 174.804C160.93 161.813 179.701 136.827 184.785 107.68C186.531 97.7264 186.48 86.2924 184.657 76.0324C182.294 62.6332 176.62 49.3105 168.582 38.3104C165.116 33.5888 162.214 30.2709 157.694 25.9065C142.878 11.614 124.543 3.013 103.41 0.486282C100.354 0.103439 88.9272 -0.0496826 85.7431 0.231064ZM105.926 17.9436C106.389 18.1222 107.108 18.6582 107.493 19.1431C108.16 19.9088 108.212 20.1385 108.109 21.5933C107.981 23.6606 107.262 24.4518 104.72 25.345C102.383 26.1618 67.9992 36.728 60.2699 38.9995C55.468 40.4288 51.6676 41.9091 51.6676 42.3429C51.6676 42.6492 52.1555 42.9555 56.033 45.0228C58.0872 46.1203 60.347 47.3198 61.0403 47.7026C61.7593 48.0855 64.1217 49.3361 66.3044 50.5101C68.4871 51.6586 72.3645 53.7259 74.9067 55.1041C85.1525 60.6169 85.7687 60.8466 90.5706 60.8211C95.4496 60.7956 99.0189 60.0555 109.444 56.8907C113.039 55.7932 119.279 53.9046 123.311 52.6795C135.457 48.9788 143.186 46.7583 145.446 46.2734C148.553 45.6098 153.303 45.6608 156.41 46.3755C161.033 47.4474 164.936 49.8976 166.297 52.6029C167.118 54.2364 167.195 56.4823 166.476 58.0647C165.424 60.3362 162.137 62.2504 156.179 63.9859C154.279 64.5474 147.166 66.6913 140.387 68.7586C133.608 70.8259 124.877 73.4802 121 74.6287C108.469 78.406 105.747 79.5545 102.999 82.2089C101.227 83.8678 100.303 85.6799 99.9433 88.2321C99.7892 89.253 99.6865 103.214 99.6865 123.376C99.6865 144.815 99.5838 157.398 99.4297 158.47C98.8905 161.839 96.9646 164.595 94.3197 165.846C93.1128 166.407 92.5222 166.509 90.5706 166.509C88.4907 166.509 88.0798 166.433 86.5905 165.692C84.2537 164.544 81.7372 162.017 80.556 159.669C78.9382 156.377 78.8869 155.866 78.8612 135.933C78.8099 105.74 78.5017 86.318 78.0652 84.8377C77.1921 81.9792 75.1892 79.1207 72.8524 77.4362C72.0564 76.8747 70.0021 75.6751 68.2816 74.7563C66.5612 73.8375 63.1202 71.9744 60.6551 70.6472C58.19 69.2945 52.6947 66.334 48.4578 64.0369C44.2208 61.7654 39.0337 58.9325 36.9024 57.784C32.5371 55.3593 30.0719 54.2108 28.8907 53.9811C27.35 53.7259 27.427 51.9138 27.273 91.6521C27.1446 127.664 27.1446 127.817 26.6053 128.506C25.6809 129.757 24.8078 130.242 23.4725 130.242C21.8805 130.242 20.7249 129.553 20.083 128.2C19.5694 127.154 19.5694 126.694 19.6464 90.8099C19.6978 57.8861 19.7491 54.364 20.1343 53.292C21.7264 48.8001 24.2172 46.6562 28.0433 46.4776C31.664 46.2989 33.1534 46.9114 46.9171 54.4405C50.4607 56.3802 55.468 59.1111 58.0872 60.5404C67.8708 65.8235 74.9581 69.7539 76.6785 70.8514C81.0952 73.6844 83.7658 77.4107 85.512 83.1787L86.1796 85.3481L86.3593 119.293C86.4364 137.95 86.6161 153.518 86.7188 153.876C86.8216 154.233 87.0013 154.948 87.1297 155.484C87.5406 157.04 89.5692 158.98 90.8017 158.98C91.8546 158.98 91.8546 159.388 91.983 122.228L92.1113 86.6242L92.702 84.8377C94.7306 78.891 98.3256 75.0371 104.694 72.051C107.236 70.8514 108.212 70.5196 121.257 66.5892C125.981 65.1599 132.221 63.2713 135.123 62.378C138.025 61.4847 143.52 59.8002 147.32 58.6772C154.998 56.3802 157.977 55.3849 157.977 55.1041C157.977 54.7723 155.794 54.0577 153.483 53.6749C151.557 53.3431 150.787 53.3176 148.861 53.5728C145.215 54.0322 144.598 54.1853 122.284 61.0253C108.597 65.211 107.441 65.5428 102.896 66.7168C91.9059 69.5242 85.6917 69.2435 78.399 65.5938C76.1393 64.4453 69.1547 60.7446 61.6822 56.712C59.2171 55.3593 55.6991 53.4707 53.8503 52.4753C52.0271 51.5055 49.8187 50.3059 48.9457 49.8465C45.3507 47.9068 43.4505 45.3035 43.4505 42.3685C43.4505 38.0807 47.3793 34.8138 55.2626 32.5168C60.6808 30.9344 92.3425 21.2104 96.9903 19.7046C100.842 18.454 103.769 17.6628 104.771 17.6118C104.951 17.5863 105.464 17.7394 105.926 17.9436Z" fill="#2A4588"/>
</svg>